<svg data-v-423bf9ae="" xmlns="http://www.w3.org/2000/svg" viewBox="0 0 366.6792251774329 163" class="iconAbove"><!----><!----><!----><g data-v-423bf9ae="" id="d1729fd0-10cb-4fdb-b5c4-5f8c115175e0" fill="black" transform="matrix(5.660377025604248,0,0,5.660377025604248,-1.98113214969635,103.96226501464844)"><path d="M3.75 10.26L3.75 9.80L2.74 9.28L2.74 2.84L3.75 2.32L3.75 1.86L0.35 1.86L0.35 2.32L1.36 2.84L1.36 9.28L0.35 9.80L0.35 10.26ZM11.75 10.26L11.75 9.80L10.72 9.28L10.72 6.02C10.72 4.47 9.66 3.57 7.92 3.57C7.07 3.57 6.03 3.74 5.18 3.99L4.96 4.05L5.26 5.08L5.26 10.26L6.58 10.26L6.58 4.89C7 4.77 7.48 4.70 7.92 4.70C8.90 4.70 9.41 5.15 9.41 6.02L9.41 10.26ZM16.20-0.17C14.53-0.17 13.57 0.71 13.57 2.17L13.57 3.72L12.17 3.72L12.17 4.86L13.57 4.86L13.57 10.26L14.88 10.26L14.88 4.86L17.11 4.86L17.11 3.72L14.88 3.72L14.88 2.17C14.88 1.41 15.25 1.01 16.11 0.98L16.65 2.00L17.11 2.00L17.11-0.01C16.84-0.11 16.48-0.17 16.20-0.17ZM23.07 5.80L23.07 3.86C22.54 3.70 21.83 3.57 21.29 3.57C20.44 3.57 19.40 3.74 18.55 3.99L18.33 4.05L18.63 5.08L18.63 10.26L19.95 10.26L19.95 4.89C20.37 4.77 20.85 4.70 21.29 4.70C21.53 4.70 21.81 4.73 22.09 4.79L22.61 5.80ZM30.60 10.26L30.60 9.14C30.41 9.21 30.18 9.28 29.95 9.28C29.62 9.28 29.48 9.13 29.48 8.81L29.48 6.02C29.48 4.44 28.36 3.57 26.56 3.57C25.97 3.57 25.24 3.70 24.58 3.88L24.58 5.80L25.03 5.80L25.55 4.82C25.90 4.75 26.26 4.70 26.56 4.70C27.64 4.70 28.17 5.17 28.17 6.02L28.17 6.40L26.40 6.40C24.77 6.40 23.91 7.24 23.91 8.34C23.91 9.53 24.88 10.43 26.63 10.43C27.30 10.43 27.96 10.25 28.49 9.98C28.73 10.26 29.15 10.43 29.61 10.43C29.96 10.43 30.34 10.35 30.60 10.26ZM28.17 9.02C27.71 9.24 27.16 9.38 26.63 9.38C25.70 9.38 25.24 8.99 25.24 8.34C25.24 7.78 25.59 7.43 26.40 7.43L28.17 7.43ZM37.87 4.41C37.87 2.77 36.79 1.86 35.04 1.86L31.64 1.86L31.95 2.91L31.95 10.26L33.26 10.26L33.26 6.94L35.04 6.94C36.79 6.94 37.87 6.05 37.87 4.41ZM35.04 3.01C35.97 3.01 36.50 3.50 36.50 4.41C36.50 5.32 35.97 5.81 35.04 5.81L33.26 5.81L33.26 3.01ZM45.26 10.26L45.26 9.14C45.07 9.21 44.84 9.28 44.60 9.28C44.28 9.28 44.14 9.13 44.14 8.81L44.14 6.02C44.14 4.44 43.02 3.57 41.22 3.57C40.63 3.57 39.90 3.70 39.24 3.88L39.24 5.80L39.69 5.80L40.21 4.82C40.56 4.75 40.92 4.70 41.22 4.70C42.29 4.70 42.83 5.17 42.83 6.02L42.83 6.40L41.06 6.40C39.42 6.40 38.57 7.24 38.57 8.34C38.57 9.53 39.54 10.43 41.29 10.43C41.96 10.43 42.62 10.25 43.15 9.98C43.39 10.26 43.81 10.43 44.27 10.43C44.62 10.43 45.00 10.35 45.26 10.26ZM42.83 9.02C42.36 9.24 41.82 9.38 41.29 9.38C40.36 9.38 39.90 8.99 39.90 8.34C39.90 7.78 40.25 7.43 41.06 7.43L42.83 7.43ZM50.64 10.28L50.64 9.13C50.37 9.23 50.04 9.28 49.73 9.28C48.82 9.28 48.41 8.86 48.41 8.09L48.41 4.86L50.64 4.86L50.64 3.72L48.41 3.72L48.41 1.76L47.10 1.96L47.10 3.72L45.70 3.72L45.70 4.86L47.10 4.86L47.10 8.09C47.10 9.55 48.06 10.43 49.73 10.43C50.01 10.43 50.37 10.36 50.64 10.28ZM56.92 10.12L56.92 8.99C56.35 9.17 55.72 9.28 55.16 9.28C53.83 9.28 53.07 8.54 53.07 7C53.07 5.45 53.83 4.70 55.16 4.70C55.40 4.70 55.66 4.73 55.94 4.79L56.48 5.80L56.92 5.80L56.92 3.86C56.41 3.70 55.69 3.57 55.16 3.57C52.98 3.57 51.70 4.84 51.70 7C51.70 9.14 52.98 10.43 55.16 10.43C55.69 10.43 56.41 10.29 56.92 10.12ZM65.13 10.26L65.13 9.80L64.12 9.28L64.12 6.02C64.12 4.47 63.06 3.57 61.32 3.57C60.90 3.57 60.37 3.65 59.98 3.78L59.98 0L58.66 0L58.66 10.26L59.98 10.26L59.98 4.89C60.40 4.77 60.86 4.70 61.32 4.70C62.29 4.70 62.80 5.15 62.80 6.02L62.80 10.26Z"></path></g><!----><g data-v-423bf9ae="" id="ebe83671-d806-4e38-825a-738f1e57e9fd" transform="matrix(1.1148416996002197,0,0,1.1148416996002197,127.17758178710938,-11.232072830200195)" stroke="none" fill="black"><path d="M75.27 48.96c.01-.49 0-.98 0-1.48-.02-3.19-1.18-4.56-4.31-5.06-.59-.09-1.18-.23-1.86-.38-.35-.08-.73-.17-1.15-.26l-.4-.09.91-1.38c.42-.64.78-1.18 1.14-1.72 1.66-2.44 1.51-4.19-.54-6.25-.39-.39-.77-.77-1.17-1.16-2.13-2.08-3.93-2.22-6.4-.48-1.47 1.04-2.15 1.5-2.7 1.28-.56-.23-.7-1.07-1.02-2.9-.51-2.94-1.88-4.09-4.89-4.11h-1.31c-3.34.01-4.6 1.07-5.18 4.35-.1.59-.24 1.17-.4 1.84-.08.33-.16.68-.25 1.07l-.09.4-.34-.23c-.43-.29-.82-.55-1.18-.79-.74-.5-1.37-.93-2.01-1.33-1.81-1.14-3.68-1-5.28.39-.59.51-1.14 1.09-1.67 1.65l-.18.19c-1.88 1.96-2.02 3.76-.46 6 1.11 1.59 1.61 2.31 1.37 2.9-.25.59-1.13.74-3.07 1.07-2.51.43-3.82 1.93-3.88 4.45-.02.72-.02 1.47 0 2.29.05 2.58 1.27 4.01 3.83 4.49 1.94.37 2.82.53 3.07 1.13.25.59-.26 1.33-1.35 2.94-1.5 2.19-1.36 3.95.45 5.87.54.58 1.18 1.24 1.86 1.83 1.75 1.52 3.56 1.62 5.53.29.59-.4 1.19-.79 1.88-1.24l1.47-.96.37 1.75c.2.95.37 1.78.55 2.61.43 1.95 1.94 3.21 3.93 3.3.51.02 1.01.01 1.53.01h.6c3.3 0 4.61-1.11 5.17-4.36.1-.59.24-1.17.4-1.84.08-.33.17-.69.26-1.09l.09-.4 1.48 1.01c.7.48 1.29.89 1.9 1.28 1.95 1.27 3.81 1.13 5.53-.42.41-.37.81-.78 1.2-1.17l.31-.32c2.13-2.16 2.28-3.88.55-6.37-1.06-1.52-1.54-2.22-1.3-2.78.24-.57 1.09-.71 2.96-1.03 2.79-.48 4.01-1.91 4.05-4.79zm-3.39.55c-.14.48-.81.84-1.23.97-.44.13-.9.21-1.35.29-.41.07-.83.14-1.22.26-1.42.41-2.47 1.26-2.96 2.41-.49 1.14-.39 2.49.29 3.8.32.62.62 1.16 1.03 1.58 1.27 1.32.81 2.3-.28 3.37-1.05 1.04-2.03 1.49-3.39.24-.45-.41-1.04-.79-1.87-1.19-1.1-.53-2.27-.61-3.3-.22-1.03.39-1.85 1.22-2.31 2.34-.24.58-.56 1.45-.6 2.28-.08 1.68-.79 2.34-2.52 2.34h-.12c-1.49-.03-2.49-.41-2.55-2.23-.02-.51-.18-1.03-.34-1.54l-.04-.14c-.47-1.52-1.37-2.61-2.55-3.06-1.16-.45-2.55-.25-3.9.56-.52.31-1.03.62-1.44.99-1.15 1.05-2 .72-3-.15-1.62-1.41-1.34-2.49-.3-3.88 1.36-1.82 1.8-3.61 1.23-5.02-.58-1.44-2.18-2.44-4.49-2.81-1.1-.18-1.9-.66-2.33-1.4-.42-.74-.43-1.69-.02-2.74.18-.47.82-.76 1.16-.85.43-.12.88-.19 1.31-.26.37-.06.75-.12 1.11-.21 1.55-.39 2.68-1.25 3.19-2.43.51-1.19.36-2.62-.44-4.04-.1-.19-.21-.37-.33-.55-1.89-2.96-1.83-3.22 1.29-5.42l.16-.11.16.11.78.54c.56.4 1.15.81 1.74 1.18 1.46.9 2.93 1.15 4.15.68 1.21-.46 2.13-1.62 2.6-3.26l.05-.17c.12-.4.24-.81.24-1.2.01-.86.21-1.47.63-1.86.44-.42 1.11-.6 2.14-.56 1.14.05 2.36.25 2.37 2.06 0 .22.05.46.11.7l.05.22c.44 2.11 1.4 3.52 2.76 4.05 1.36.53 3.07.14 4.84-1.1l2.04-1.44.16.1c.08.05.15.1.22.14.15.09.29.17.41.29 2.35 2.18 2.37 2.32.65 5-1.07 1.66-1.35 3.22-.83 4.52.52 1.28 1.8 2.2 3.69 2.64.09.02.17.04.26.07.12.03.25.07.37.09 1.26.23 2.03.65 2.44 1.31.41.65.43 1.53.08 2.71z"></path><path d="M52.11 39.42h-.05c-2.3 0-4.47.89-6.11 2.52a8.66 8.66 0 0 0-2.58 6.14 8.6 8.6 0 0 0 2.53 6.13 8.638 8.638 0 0 0 6.17 2.57h.01c4.82-.01 8.75-3.89 8.76-8.66 0-4.77-3.91-8.67-8.73-8.7zm.01 14.12h-.02c-3.01-.01-5.4-2.37-5.43-5.37a5.46 5.46 0 0 1 1.6-3.94c1.03-1.04 2.39-1.62 3.83-1.62h.01c1.43 0 2.78.57 3.82 1.62a5.602 5.602 0 0 1 1.62 3.95c-.04 2.96-2.47 5.36-5.43 5.36zM74.7 32.41l9.43 3.21c.16.05.32.08.46.08.59 0 1.12-.35 1.34-.9l3.73-9.24c.14-.36.14-.75-.01-1.11a1.44 1.44 0 0 0-.79-.78c-.73-.29-1.58.06-1.88.8l-2.23 5.52-.29-.44c-6.46-9.7-14.43-15.72-23.68-17.9-15.11-3.57-28.02 4.36-28.56 4.7-.67.42-.88 1.32-.46 1.99.42.67 1.32.87 1.99.46.12-.07 12.44-7.62 26.36-4.34 8.58 2.03 16.02 7.72 22.11 16.92l.45.68-7.05-2.39c-.15-.05-.31-.08-.46-.08-.6 0-1.17.38-1.37.98-.13.37-.1.77.07 1.11.18.36.47.61.84.73zM89.77 47.69c-.02-.77-.67-1.4-1.44-1.4-.83.02-1.46.68-1.44 1.48 0 .59-.01 14.34-9.52 24.07-5.91 6.05-14.29 9.43-24.9 10.04l-.6.03 3.32-4.38c.23-.31.33-.69.28-1.07s-.25-.72-.56-.95c-.26-.2-.56-.29-.87-.29-.44 0-.87.2-1.15.57l-5.58 7.36c-.47.6-.38 1.47.21 1.97l7.03 6c.59.51 1.54.43 2.04-.16.51-.61.44-1.52-.16-2.04l-4.82-4.11.7-.04c11.52-.59 20.66-4.28 27.16-10.95 10.46-10.75 10.31-25.51 10.3-26.13zM15.74 57.37c4.23 14.89 17.95 22.18 18.09 22.25a1.452 1.452 0 1 0 2.07-1.7 1.41 1.41 0 0 0-.7-.85c-.53-.29-12.89-7.16-16.67-20.49-2.27-8-1.01-16.75 3.77-25.99l.33-.64 1.81 6.74c.17.63.74 1.07 1.39 1.07.14 0 .25-.01.35-.05a1.444 1.444 0 0 0 1.04-1.76l-2.63-9.83c-.2-.74-.95-1.2-1.69-1.04l-9.96 2.07c-.38.07-.7.29-.91.62a1.432 1.432 0 0 0 .42 2c.32.21.71.28 1.09.2l6.54-1.36-.27.52c-5.19 9.97-6.56 19.47-4.07 28.24z"></path></g><!----></svg>