<svg data-v-423bf9ae="" xmlns="http://www.w3.org/2000/svg" viewBox="0 0 366.6792251774329 60" class="font"><!----><!----><!----><g data-v-423bf9ae="" id="3b4c7410-f5e3-451e-a3db-93e9d45cb96a" fill="white" transform="matrix(5.660377025604248,0,0,5.660377025604248,-1.98113214969635,0.9622651934623718)"><path d="M3.75 10.26L3.75 9.80L2.74 9.28L2.74 2.84L3.75 2.32L3.75 1.86L0.35 1.86L0.35 2.32L1.36 2.84L1.36 9.28L0.35 9.80L0.35 10.26ZM11.75 10.26L11.75 9.80L10.72 9.28L10.72 6.02C10.72 4.47 9.66 3.57 7.92 3.57C7.07 3.57 6.03 3.74 5.18 3.99L4.96 4.05L5.26 5.08L5.26 10.26L6.58 10.26L6.58 4.89C7 4.77 7.48 4.70 7.92 4.70C8.90 4.70 9.41 5.15 9.41 6.02L9.41 10.26ZM16.20-0.17C14.53-0.17 13.57 0.71 13.57 2.17L13.57 3.72L12.17 3.72L12.17 4.86L13.57 4.86L13.57 10.26L14.88 10.26L14.88 4.86L17.11 4.86L17.11 3.72L14.88 3.72L14.88 2.17C14.88 1.41 15.25 1.01 16.11 0.98L16.65 2.00L17.11 2.00L17.11-0.01C16.84-0.11 16.48-0.17 16.20-0.17ZM23.07 5.80L23.07 3.86C22.54 3.70 21.83 3.57 21.29 3.57C20.44 3.57 19.40 3.74 18.55 3.99L18.33 4.05L18.63 5.08L18.63 10.26L19.95 10.26L19.95 4.89C20.37 4.77 20.85 4.70 21.29 4.70C21.53 4.70 21.81 4.73 22.09 4.79L22.61 5.80ZM30.60 10.26L30.60 9.14C30.41 9.21 30.18 9.28 29.95 9.28C29.62 9.28 29.48 9.13 29.48 8.81L29.48 6.02C29.48 4.44 28.36 3.57 26.56 3.57C25.97 3.57 25.24 3.70 24.58 3.88L24.58 5.80L25.03 5.80L25.55 4.82C25.90 4.75 26.26 4.70 26.56 4.70C27.64 4.70 28.17 5.17 28.17 6.02L28.17 6.40L26.40 6.40C24.77 6.40 23.91 7.24 23.91 8.34C23.91 9.53 24.88 10.43 26.63 10.43C27.30 10.43 27.96 10.25 28.49 9.98C28.73 10.26 29.15 10.43 29.61 10.43C29.96 10.43 30.34 10.35 30.60 10.26ZM28.17 9.02C27.71 9.24 27.16 9.38 26.63 9.38C25.70 9.38 25.24 8.99 25.24 8.34C25.24 7.78 25.59 7.43 26.40 7.43L28.17 7.43ZM37.87 4.41C37.87 2.77 36.79 1.86 35.04 1.86L31.64 1.86L31.95 2.91L31.95 10.26L33.26 10.26L33.26 6.94L35.04 6.94C36.79 6.94 37.87 6.05 37.87 4.41ZM35.04 3.01C35.97 3.01 36.50 3.50 36.50 4.41C36.50 5.32 35.97 5.81 35.04 5.81L33.26 5.81L33.26 3.01ZM45.26 10.26L45.26 9.14C45.07 9.21 44.84 9.28 44.60 9.28C44.28 9.28 44.14 9.13 44.14 8.81L44.14 6.02C44.14 4.44 43.02 3.57 41.22 3.57C40.63 3.57 39.90 3.70 39.24 3.88L39.24 5.80L39.69 5.80L40.21 4.82C40.56 4.75 40.92 4.70 41.22 4.70C42.29 4.70 42.83 5.17 42.83 6.02L42.83 6.40L41.06 6.40C39.42 6.40 38.57 7.24 38.57 8.34C38.57 9.53 39.54 10.43 41.29 10.43C41.96 10.43 42.62 10.25 43.15 9.98C43.39 10.26 43.81 10.43 44.27 10.43C44.62 10.43 45.00 10.35 45.26 10.26ZM42.83 9.02C42.36 9.24 41.82 9.38 41.29 9.38C40.36 9.38 39.90 8.99 39.90 8.34C39.90 7.78 40.25 7.43 41.06 7.43L42.83 7.43ZM50.64 10.28L50.64 9.13C50.37 9.23 50.04 9.28 49.73 9.28C48.82 9.28 48.41 8.86 48.41 8.09L48.41 4.86L50.64 4.86L50.64 3.72L48.41 3.72L48.41 1.76L47.10 1.96L47.10 3.72L45.70 3.72L45.70 4.86L47.10 4.86L47.10 8.09C47.10 9.55 48.06 10.43 49.73 10.43C50.01 10.43 50.37 10.36 50.64 10.28ZM56.92 10.12L56.92 8.99C56.35 9.17 55.72 9.28 55.16 9.28C53.83 9.28 53.07 8.54 53.07 7C53.07 5.45 53.83 4.70 55.16 4.70C55.40 4.70 55.66 4.73 55.94 4.79L56.48 5.80L56.92 5.80L56.92 3.86C56.41 3.70 55.69 3.57 55.16 3.57C52.98 3.57 51.70 4.84 51.70 7C51.70 9.14 52.98 10.43 55.16 10.43C55.69 10.43 56.41 10.29 56.92 10.12ZM65.13 10.26L65.13 9.80L64.12 9.28L64.12 6.02C64.12 4.47 63.06 3.57 61.32 3.57C60.90 3.57 60.37 3.65 59.98 3.78L59.98 0L58.66 0L58.66 10.26L59.98 10.26L59.98 4.89C60.40 4.77 60.86 4.70 61.32 4.70C62.29 4.70 62.80 5.15 62.80 6.02L62.80 10.26Z"></path></g><!----><!----></svg>